<svg width="224" height="52" viewBox="0 0 224 52" fill="none" xmlns="http://www.w3.org/2000/svg">
<g filter="url(#filter0_i_104_87)">
<path fill-rule="evenodd" clip-rule="evenodd" d="M193.309 23H21C18.2386 23 16 25.2386 16 28V31C16 33.7614 18.2386 36 21 36H204.812L193.309 23Z" fill="#829AD8"/>
</g>
<g filter="url(#filter1_i_104_87)">
<path fill-rule="evenodd" clip-rule="evenodd" d="M194.364 23H20C17.2386 23 15 25.2386 15 28V31C15 33.7614 17.2386 36 20 36H206L194.364 23Z" fill="#FF0D0D"/>
</g>
<mask id="path-3-outside-1_104_87" maskUnits="userSpaceOnUse" x="10" y="20" width="202" height="18" fill="black">
<rect fill="white" x="10" y="20" width="202" height="18"/>
<path fill-rule="evenodd" clip-rule="evenodd" d="M193.126 23H18C15.2386 23 13 25.2386 13 28V30C13 32.7614 15.2386 35 18 35H204.812L193.126 23Z"/>
</mask>
<path d="M193.126 23L195.276 20.907L194.392 20H193.126V23ZM204.812 35V38H211.921L206.961 32.907L204.812 35ZM18 26H193.126V20H18V26ZM16 28C16 26.8954 16.8954 26 18 26V20C13.5817 20 10 23.5817 10 28H16ZM16 30V28H10V30H16ZM18 32C16.8954 32 16 31.1046 16 30H10C10 34.4183 13.5817 38 18 38V32ZM204.812 32H18V38H204.812V32ZM206.961 32.907L195.276 20.907L190.977 25.093L202.663 37.093L206.961 32.907Z" fill="#454545" mask="url(#path-3-outside-1_104_87)"/>
<g filter="url(#filter2_i_104_87)">
<path fill-rule="evenodd" clip-rule="evenodd" d="M211.913 44H21.5C20.1193 44 19 45.1193 19 46.5C19 47.8807 20.1193 49 21.5 49H216.727L211.913 44Z" fill="#FFD80D"/>
</g>
<mask id="path-6-outside-2_104_87" maskUnits="userSpaceOnUse" x="16" y="41" width="208" height="11" fill="black">
<rect fill="white" x="16" y="41" width="208" height="11"/>
<path fill-rule="evenodd" clip-rule="evenodd" d="M210.81 44H21.5C20.1193 44 19 45.1193 19 46.5C19 47.8807 20.1193 49 21.5 49H215.995L210.81 44Z"/>
</mask>
<path d="M210.81 44L212.893 41.8405L212.021 41H210.81V44ZM215.995 49V52H223.428L218.078 46.8405L215.995 49ZM21.5 47H210.81V41H21.5V47ZM22 46.5C22 46.7761 21.7761 47 21.5 47V41C18.4624 41 16 43.4624 16 46.5H22ZM21.5 46C21.7761 46 22 46.2239 22 46.5H16C16 49.5376 18.4624 52 21.5 52V46ZM215.995 46H21.5V52H215.995V46ZM218.078 46.8405L212.893 41.8405L208.728 46.1595L213.913 51.1595L218.078 46.8405Z" fill="#454545" mask="url(#path-6-outside-2_104_87)"/>
<g filter="url(#filter3_i_104_87)">
<path fill-rule="evenodd" clip-rule="evenodd" d="M176.416 3.90915H16.9425C16.442 3.90915 15.956 3.97103 15.4916 4.08755C12.5418 4.43269 9.7552 5.78359 7.54741 7.9658C4.96627 10.517 3.36342 14.0195 3.05462 17.7834C2.74582 21.5472 3.75345 25.2994 5.87902 28.301C8.00459 31.3025 11.094 33.3357 14.5386 34L16.4471 22.4606C15.6733 22.3114 14.9793 21.8547 14.5018 21.1804C14.0244 20.5062 13.798 19.6633 13.8674 18.8178C13.9368 17.9723 14.2968 17.1856 14.8766 16.6125C15.3193 16.1749 15.8655 15.8862 16.449 15.774C16.6117 15.7874 16.7763 15.7942 16.9426 15.7942H186.933L176.416 3.90915Z" fill="#829AD8"/>
</g>
<g filter="url(#filter4_i_104_87)">
<path fill-rule="evenodd" clip-rule="evenodd" d="M176.482 3.98543H17.0167C16.8074 3.98543 16.6006 3.99611 16.3969 4.01696C12.9032 4.18359 9.58351 5.79324 7.1005 8.54205C4.47499 11.4486 3 15.3908 3 19.5013C3 23.6118 4.47499 27.554 7.1005 30.4605C9.72601 33.3671 13.287 35 17 35L17 22.9828C16.1659 22.9828 15.366 22.616 14.7762 21.9631C14.1865 21.3102 13.8551 20.4247 13.8551 19.5013C13.8551 18.5779 14.1865 17.6924 14.7762 17.0395C15.366 16.3866 16.1659 16.0198 17 16.0198V16.0187L17.0167 16.0187H186.868L176.482 3.98543Z" fill="#8100E7"/>
</g>
<mask id="path-10-outside-3_104_87" maskUnits="userSpaceOnUse" x="0" y="0.985428" width="194" height="38" fill="black">
<rect fill="white" y="0.985428" width="194" height="38"/>
<path fill-rule="evenodd" clip-rule="evenodd" d="M176.482 3.98543H17.0167C16.8073 3.98543 16.6005 3.99612 16.3966 4.01699C14.7641 4.09495 13.1549 4.48879 11.6424 5.18236C9.94387 5.96124 8.40053 7.10286 7.1005 8.54205C5.80048 9.98124 4.76925 11.6898 4.06569 13.5702C3.36212 15.4506 3 17.466 3 19.5013C3 21.5366 3.36212 23.552 4.06569 25.4324C4.76925 27.3128 5.80049 29.0213 7.10051 30.4605C8.40053 31.8997 9.94387 33.0413 11.6424 33.8202C13.341 34.5991 15.1615 35 17 35L17 22.9828C16.587 22.9828 16.1781 22.8928 15.7965 22.7178C15.415 22.5429 15.0683 22.2864 14.7762 21.9631C14.4842 21.6398 14.2526 21.256 14.0945 20.8336C13.9365 20.4112 13.8551 19.9585 13.8551 19.5013C13.8551 19.0441 13.9365 18.5914 14.0945 18.169C14.2526 17.7466 14.4842 17.3628 14.7762 17.0395C15.0683 16.7162 15.415 16.4597 15.7965 16.2848C16.1781 16.1098 16.587 16.0198 17 16.0198V16.0187L17.0167 16.0187H186.868L176.482 3.98543Z"/>
</mask>
<path d="M176.482 3.98543L178.753 2.02525L177.855 0.985428H176.482V3.98543ZM16.3966 4.01699L16.5397 7.01357L16.6211 7.00969L16.7022 7.00139L16.3966 4.01699ZM11.6424 5.18236L10.392 2.45539L11.6424 5.18236ZM7.1005 8.54205L9.32673 10.553L9.32673 10.553L7.1005 8.54205ZM4.06569 13.5702L1.25592 12.5189L1.25592 12.5189L4.06569 13.5702ZM4.06569 25.4324L6.87545 24.3811L6.87545 24.3811L4.06569 25.4324ZM7.10051 30.4605L9.32673 28.4496L9.32673 28.4496L7.10051 30.4605ZM11.6424 33.8202L12.8929 31.0933L12.8929 31.0933L11.6424 33.8202ZM17 35V38H20L20 35L17 35ZM17 22.9828L20 22.9828L20 19.9828H17V22.9828ZM15.7965 22.7178L14.546 25.4448L14.546 25.4448L15.7965 22.7178ZM14.0945 20.8336L16.9043 19.7823L16.9043 19.7823L14.0945 20.8336ZM14.0945 18.169L16.9043 19.2203L16.9043 19.2203L14.0945 18.169ZM14.7762 17.0395L17.0025 19.0504L17.0025 19.0504L14.7762 17.0395ZM15.7965 16.2848L17.047 19.0117L17.047 19.0117L15.7965 16.2848ZM17 16.0198V19.0198H20V16.0198H17ZM17 16.0187L17.0041 13.0187L14 13.0146V16.0187H17ZM17.0167 16.0187L17.0125 19.0187H17.0167V16.0187ZM186.868 16.0187V19.0187H193.42L189.139 14.0586L186.868 16.0187ZM17.0167 6.98543H176.482V0.985428H17.0167V6.98543ZM16.7022 7.00139C16.8047 6.9909 16.9095 6.98543 17.0167 6.98543V0.985428C16.7051 0.985428 16.3963 1.00134 16.0911 1.03258L16.7022 7.00139ZM12.8929 7.90932C14.0623 7.37307 15.2961 7.07296 16.5397 7.01357L16.2535 1.0204C14.2321 1.11693 12.2475 1.60451 10.392 2.45539L12.8929 7.90932ZM9.32673 10.553C10.3641 9.40459 11.5789 8.51184 12.8929 7.90932L10.392 2.45539C8.30881 3.41063 6.43696 4.80114 4.87428 6.5311L9.32673 10.553ZM6.87545 14.6215C7.4514 13.0822 8.28882 11.702 9.32673 10.553L4.87428 6.5311C3.31215 8.26046 2.08711 10.2974 1.25592 12.5189L6.87545 14.6215ZM6 19.5013C6 17.8199 6.29944 16.161 6.87545 14.6215L1.25592 12.5189C0.4248 14.7402 0 17.112 0 19.5013H6ZM6.87545 24.3811C6.29944 22.8416 6 21.1827 6 19.5013H0C0 21.8906 0.4248 24.2624 1.25592 26.4837L6.87545 24.3811ZM9.32673 28.4496C8.28882 27.3006 7.4514 25.9204 6.87545 24.3811L1.25592 26.4837C2.08711 28.7052 3.31215 30.7421 4.87428 32.4715L9.32673 28.4496ZM12.8929 31.0933C11.5789 30.4907 10.3641 29.598 9.32673 28.4496L4.87428 32.4715C6.43696 34.2014 8.30881 35.592 10.392 36.5472L12.8929 31.0933ZM17 32C15.6003 32 14.2058 31.6953 12.8929 31.0933L10.392 36.5472C12.4762 37.5029 14.7227 38 17 38V32ZM14 22.9828L14 35L20 35L20 22.9828L14 22.9828ZM14.546 25.4448C15.3133 25.7966 16.1482 25.9828 17 25.9828V19.9828C17.0119 19.9828 17.0227 19.9842 17.0316 19.9861C17.0405 19.9881 17.0456 19.9902 17.047 19.9908L14.546 25.4448ZM12.55 23.9741C13.1047 24.5881 13.7799 25.0935 14.546 25.4448L17.047 19.9909C17.05 19.9922 17.0318 19.9847 17.0025 19.9522L12.55 23.9741ZM11.2847 21.8849C11.5704 22.6484 11.9959 23.3606 12.55 23.9741L17.0025 19.9522C16.9725 19.919 16.9347 19.8636 16.9043 19.7823L11.2847 21.8849ZM10.8551 19.5013C10.8551 20.3124 10.9991 21.1216 11.2847 21.8849L16.9043 19.7823C16.8738 19.7008 16.8551 19.6045 16.8551 19.5013H10.8551ZM11.2847 17.1177C10.9991 17.881 10.8551 18.6901 10.8551 19.5013H16.8551C16.8551 19.398 16.8738 19.3017 16.9043 19.2203L11.2847 17.1177ZM12.55 15.0285C11.9959 15.642 11.5704 16.3542 11.2847 17.1177L16.9043 19.2203C16.9347 19.1389 16.9725 19.0835 17.0025 19.0504L12.55 15.0285ZM14.546 13.5578C13.7799 13.9091 13.1047 14.4145 12.55 15.0285L17.0025 19.0504C17.0318 19.0179 17.05 19.0103 17.047 19.0117L14.546 13.5578ZM17 13.0198C16.1482 13.0198 15.3133 13.206 14.546 13.5578L17.047 19.0117C17.0456 19.0123 17.0405 19.0145 17.0316 19.0165C17.0227 19.0184 17.0119 19.0198 17 19.0198V13.0198ZM14 16.0187V16.0198H20V16.0187H14ZM17.0208 13.0188L17.0041 13.0187L16.9959 19.0187L17.0125 19.0187L17.0208 13.0188ZM186.868 13.0187H17.0167V19.0187H186.868V13.0187ZM189.139 14.0586L178.753 2.02525L174.211 5.94561L184.597 17.9789L189.139 14.0586Z" fill="#454545" mask="url(#path-10-outside-3_104_87)"/>
<defs>
<filter id="filter0_i_104_87" x="16" y="23" width="191.812" height="17" filterUnits="userSpaceOnUse" color-interpolation-filters="sRGB">
<feFlood flood-opacity="0" result="BackgroundImageFix"/>
<feBlend mode="normal" in="SourceGraphic" in2="BackgroundImageFix" result="shape"/>
<feColorMatrix in="SourceAlpha" type="matrix" values="0 0 0 0 0 0 0 0 0 0 0 0 0 0 0 0 0 0 127 0" result="hardAlpha"/>
<feOffset dx="3" dy="4"/>
<feGaussianBlur stdDeviation="13.5"/>
<feComposite in2="hardAlpha" operator="arithmetic" k2="-1" k3="1"/>
<feColorMatrix type="matrix" values="0 0 0 0 0 0 0 0 0 0 0 0 0 0 0 0 0 0 0.21 0"/>
<feBlend mode="normal" in2="shape" result="effect1_innerShadow_104_87"/>
</filter>
<filter id="filter1_i_104_87" x="15" y="23" width="191" height="17" filterUnits="userSpaceOnUse" color-interpolation-filters="sRGB">
<feFlood flood-opacity="0" result="BackgroundImageFix"/>
<feBlend mode="normal" in="SourceGraphic" in2="BackgroundImageFix" result="shape"/>
<feColorMatrix in="SourceAlpha" type="matrix" values="0 0 0 0 0 0 0 0 0 0 0 0 0 0 0 0 0 0 127 0" result="hardAlpha"/>
<feOffset dy="4"/>
<feGaussianBlur stdDeviation="2"/>
<feComposite in2="hardAlpha" operator="arithmetic" k2="-1" k3="1"/>
<feColorMatrix type="matrix" values="0 0 0 0 0 0 0 0 0 0 0 0 0 0 0 0 0 0 0.25 0"/>
<feBlend mode="normal" in2="shape" result="effect1_innerShadow_104_87"/>
</filter>
<filter id="filter2_i_104_87" x="19" y="44" width="197.727" height="9" filterUnits="userSpaceOnUse" color-interpolation-filters="sRGB">
<feFlood flood-opacity="0" result="BackgroundImageFix"/>
<feBlend mode="normal" in="SourceGraphic" in2="BackgroundImageFix" result="shape"/>
<feColorMatrix in="SourceAlpha" type="matrix" values="0 0 0 0 0 0 0 0 0 0 0 0 0 0 0 0 0 0 127 0" result="hardAlpha"/>
<feOffset dy="4"/>
<feGaussianBlur stdDeviation="2"/>
<feComposite in2="hardAlpha" operator="arithmetic" k2="-1" k3="1"/>
<feColorMatrix type="matrix" values="0 0 0 0 0 0 0 0 0 0 0 0 0 0 0 0 0 0 0.09 0"/>
<feBlend mode="normal" in2="shape" result="effect1_innerShadow_104_87"/>
</filter>
<filter id="filter3_i_104_87" x="2.99997" y="3.90915" width="183.933" height="34.0909" filterUnits="userSpaceOnUse" color-interpolation-filters="sRGB">
<feFlood flood-opacity="0" result="BackgroundImageFix"/>
<feBlend mode="normal" in="SourceGraphic" in2="BackgroundImageFix" result="shape"/>
<feColorMatrix in="SourceAlpha" type="matrix" values="0 0 0 0 0 0 0 0 0 0 0 0 0 0 0 0 0 0 127 0" result="hardAlpha"/>
<feOffset dy="4"/>
<feGaussianBlur stdDeviation="2"/>
<feComposite in2="hardAlpha" operator="arithmetic" k2="-1" k3="1"/>
<feColorMatrix type="matrix" values="0 0 0 0 0 0 0 0 0 0 0 0 0 0 0 0 0 0 0.25 0"/>
<feBlend mode="normal" in2="shape" result="effect1_innerShadow_104_87"/>
</filter>
<filter id="filter4_i_104_87" x="3" y="3.98543" width="183.868" height="35.0146" filterUnits="userSpaceOnUse" color-interpolation-filters="sRGB">
<feFlood flood-opacity="0" result="BackgroundImageFix"/>
<feBlend mode="normal" in="SourceGraphic" in2="BackgroundImageFix" result="shape"/>
<feColorMatrix in="SourceAlpha" type="matrix" values="0 0 0 0 0 0 0 0 0 0 0 0 0 0 0 0 0 0 127 0" result="hardAlpha"/>
<feOffset dy="4"/>
<feGaussianBlur stdDeviation="2"/>
<feComposite in2="hardAlpha" operator="arithmetic" k2="-1" k3="1"/>
<feColorMatrix type="matrix" values="0 0 0 0 0 0 0 0 0 0 0 0 0 0 0 0 0 0 0.25 0"/>
<feBlend mode="normal" in2="shape" result="effect1_innerShadow_104_87"/>
</filter>
</defs>
</svg>
